<?xml version="1.0" standalone="no"?><!DOCTYPE svg PUBLIC "-//W3C//DTD SVG 1.1//EN" "http://www.w3.org/Graphics/SVG/1.1/DTD/svg11.dtd"><svg t="1634112759030" class="icon" viewBox="0 0 1024 1024" version="1.1" xmlns="http://www.w3.org/2000/svg" p-id="5057" xmlns:xlink="http://www.w3.org/1999/xlink" width="200" height="200">"4510"
        >
            <path
                d="M491.392973 45.227543c-269.911065 0-488.717979 218.806914-488.717979 488.717979 0 28.830489 2.517407 57.070524 7.304867 84.528607L412.838717 1016.348042a492.077181 492.077181 0 0 0 78.552261 6.315458c269.911065 0 488.717979-218.804919 488.717979-488.715984s-218.804919-488.719974-488.715984-488.719973z"
                fill="#746BF9"
                p-id="4511"
            ></path>
            <path
                d="M630.837747 119.461115m-118.12262 0a118.12262 118.12262 0 1 0 236.24524 0 118.12262 118.12262 0 1 0-236.24524 0Z"
                fill="#42C3FC"
                p-id="4512"
            ></path>
            <path
                d="M682.534347 225.686894a9.423319 9.423319 0 0 0-2.912373-1.689574c-31.092564-10.825646-28.531273-35.295556-24.970598-47.547467 1.174923-4.041415-0.353075-8.322203-3.77611-10.769792-12.186083-8.7052-8.340156-22.301589-5.697078-28.483398a9.588885 9.588885 0 0 0 0.237378-7.033578l-21.637329-59.831294c-0.893659-2.467537-2.772738-4.424412-5.15051-5.539491-26.791828-12.56908-22.684586-42.341103-19.764235-54.333693a9.5071 9.5071 0 0 0-0.059843-4.687722c-49.665918 13.967417-86.088522 59.560004-86.088522 113.69023 0 65.237135 52.885485 118.12262 118.12262 118.12262a117.627916 117.627916 0 0 0 51.6966-11.896841z"
                fill="#1AA9E8"
                p-id="4513"
            ></path>
            <path
                d="M630.837747 65.953259c-35.070146 0-65.668006 19.141865-81.919441 47.545472a12.000569 12.000569 0 0 0 0 11.924767c16.251435 28.403607 46.85129 47.545472 81.919441 47.545472 35.070146 0 65.668006-19.141865 81.921436-47.545472a12.000569 12.000569 0 0 0 0-11.924767c-16.25343-28.403607-46.85129-47.545472-81.921436-47.545472z"
                fill="#E9EFFF"
                p-id="4514"
            ></path>
            <path
                d="M650.875266 165.682055c-12.186083-8.7052-8.340156-22.301589-5.697078-28.483398a9.588885 9.588885 0 0 0 0.237378-7.033578l-21.637329-59.831293c-0.542579-1.502066-1.484113-2.782712-2.647067-3.829969-30.94894 3.169698-57.481448 21.252337-72.212864 46.996909a12.000569 12.000569 0 0 0 0 11.924767c16.251435 28.403607 46.849295 47.545472 81.919441 47.545472 8.096793 0 15.94025-1.063215 23.438611-2.98219a9.922013 9.922013 0 0 0-3.401092-4.30672z"
                fill="#BEC8F7"
                p-id="4515"
            ></path>
            <path
                d="M863.700233 401.205311a118.12262 118.12262 0 1 0 54.348155-229.908877 118.12262 118.12262 0 1 0-54.348155 229.908877Z"
                fill="#FF4155"
                p-id="4516"
            ></path>
            <path
                d="M929.904449 326.207616c-0.317169-3.925718-3.211588-7.10539-7.021609-8.106767-3.209594-0.84379-5.314082-2.830586-6.379292-4.091284a8.358109 8.358109 0 0 1-1.125053-1.749418c-1.857136-3.810021-12.553122-23.967226-36.85547-37.019042-18.762857-10.075611-17.109189-24.174683-14.380336-31.798715a9.221847 9.221847 0 0 0-2.284018-9.712561c-23.083541-22.532983-12.084349-46.711656-5.605319-56.869052a9.409356 9.409356 0 0 0 1.432249-4.312705c-49.151266 14.296555-85.083155 59.64179-85.083155 113.404977 0 65.237135 52.885485 118.12262 118.12262 118.12262 35.199807 0 66.783086-15.41363 88.424404-39.839654-40.68145 1.739444-48.13393-24.266443-49.245021-38.028399z"
                fill="#E80054"
                p-id="4517"
            ></path>
            <path
                d="M954.136981 258.744312c-10.682022-19.564757-35.758344-26.039798-55.205409-15.14234l-4.751555 2.663025a7.055521 7.055521 0 0 1-6.903918 0l-5.613298-3.143766c-19.578721-10.971265-44.349842-3.578627-54.716689 16.325242h-0.001995c-9.780384 18.78081-3.197625 42.019944 15.114413 52.652097 15.443551 8.96851 30.083208 20.20508 42.386983 33.627924 3.363191 3.668392 9.201899 3.668392 12.56509-0.001995 12.303775-13.420849 26.939442-24.655424 42.386983-33.625929 18.537448-10.767798 25.056374-34.455756 14.739395-53.354258z"
                fill="#E9EFFF"
                p-id="4518"
            ></path>
            <path
                d="M842.056536 312.096575c15.443551 8.96851 30.083208 20.20508 42.386982 33.627924 3.363191 3.668392 9.201899 3.668392 12.56509-0.001995 8.882735-9.690619 18.992257-18.222273 29.736117-25.602942a9.77041 9.77041 0 0 0-3.861885-2.018713c-3.209594-0.84379-5.314082-2.830586-6.379292-4.091284a8.358109 8.358109 0 0 1-1.125053-1.749418c-1.857136-3.810021-12.553122-23.967226-36.85547-37.019042-18.762857-10.075611-17.109189-24.174683-14.380336-31.798715a9.10615 9.10615 0 0 0 0.249347-5.304108c-15.072523-0.811874-29.989453 6.981714-37.447919 21.304202h-0.001995c-9.780384 18.782805-3.197625 42.021939 15.114414 52.654091z"
                fill="#BEC8F7"
                p-id="4519"
            ></path>
            <path
                d="M822.189463 672.910845a118.12262 118.12262 0 1 0 167.050612-167.050611 118.12262 118.12262 0 1 0-167.050612 167.050611Z"
                fill="#FFB332"
                p-id="4520"
            ></path>
            <path
                d="M929.110529 659.05983l-28.28791-127.727464c-41.632957-15.509379-24.862881-56.156917-24.809022-56.290567-50.777008 13.22935-88.260832 59.388453-88.260832 114.308609 0 65.237135 52.885485 118.12262 118.12262 118.122621a117.77154 117.77154 0 0 0 43.595816-8.342151c-29.323198-9.798337-20.360673-40.071048-20.360672-40.071048z"
                fill="#FF9100"
                p-id="4521"
            ></path>
            <path
                d="M852.812364 531.332366h106.124047c9.377439 0 17.05134 7.673901 17.05134 17.05134v75.420463c0 9.379434-7.673901 17.05134-17.05134 17.05134h-15.178246c-1.69157 0-3.271432 0.851769-4.199003 2.26806l-10.452623 15.936261c-2.539349 3.873854-8.218475 3.873854-10.757823 0l-10.452624-15.936261a5.02085 5.02085 0 0 0-4.199002-2.26806h-50.888715c-9.377439 0-17.05134-7.673901-17.05134-17.05134V548.383706c0.00399-9.379434 7.677891-17.05134 17.055329-17.05134z"
                fill="#E9EFFF"
                p-id="4522"
            ></path>
            <path
                d="M883.771279 623.802174V548.383706c0-9.379434 7.673901-17.05134 17.05134-17.05134h-48.010255c-9.377439 0-17.05134 7.673901-17.05134 17.05134v75.420463c0 9.377439 7.673901 17.05134 17.05134 17.05134h48.010255c-9.377439 0-17.05134-7.673901-17.05134-17.053335z"
                fill="#BEC8F7"
                p-id="4523"
            ></path>
            <path
                d="M600.940053 70.794579a39.799759 39.799759 0 0 0-10.063641 26.502586c0 22.070195 17.891141 39.961336 39.961335 39.961336s39.961336-17.891141 39.961336-39.961336a39.795769 39.795769 0 0 0-10.063642-26.500591 94.213242 94.213242 0 0 0-29.897694-4.84132 94.157389 94.157389 0 0 0-29.897694 4.839325z"
                fill="#47477F"
                p-id="4524"
            ></path>
            <path
                d="M295.348441 802.3625c-10.107527 5.834718-23.001755 4.210971-31.357869-3.949656l-1.807267-1.767371-39.737921 22.943907 78.909326 82.659503a79.226495 79.226495 0 0 0 5.164473-2.704915c37.228493-21.493705 49.983087-69.097025 28.489382-106.323524a78.582182 78.582182 0 0 0-6.740346-9.862169z"
                fill="#D3DCFB"
                p-id="4525"
            ></path>
            <path
                d="M263.990572 798.412844l-1.807267-1.767371-39.737921 22.943907 78.909326 82.659503a78.717827 78.717827 0 0 0 5.164473-2.704915 77.463113 77.463113 0 0 0 29.059888-29.492754c-55.20142-13.666206-40.228636-67.688714-40.228635-67.688714-10.109522 5.836713-23.00375 4.210971-31.359864-3.949656z"
                fill="#BEC8F7"
                p-id="4526"
            ></path>
            <path
                d="M224.627669 817.044047l-89.338012 51.578907c72.69959 77.323479 170.284002 130.968974 279.976702 148.126037z"
                fill="#E9EFFF"
                p-id="4527"
            ></path>
            <path
                d="M304.464564 900.677l-79.836895-83.634948-89.338012 51.578908a490.930185 490.930185 0 0 0 106.145989 85.316544c-2.140394-60.956347 63.028918-53.260503 63.028918-53.260504z"
                fill="#D3DCFB"
                p-id="4528"
            ></path>
            <path
                d="M83.335732 578.644449l-27.308475-47.300115c-8.290287-14.360388-26.650199-19.279504-41.010588-10.989217-14.360388 8.290287-19.279504 26.650199-10.989217 41.010587l27.308475 47.300115z"
                fill="#E9EFFF"
                p-id="4529"
            ></path>
            <path
                d="M58.798 536.145759c0.105723 1.085158 0.165566 2.184279 0.165566 3.295369 0 18.395819-14.912941 33.30876-33.30876 33.30876a33.145188 33.145188 0 0 1-18.186367-5.4218l23.865493 41.337731 51.999805-30.02137z"
                fill="#D3DCFB"
                p-id="4530"
            ></path>
            <path
                d="M138.42345 871.948245l128.86648-74.401133a29.526666 29.526666 0 0 1-4.961006-6.34937L127.306566 557.336258a29.446874 29.446874 0 0 1-3.018095-7.472429L9.584896 616.088378c16.656375 98.412244 62.70776 186.82069 128.838554 255.859867z"
                fill="#FF7186"
                p-id="4531"
            ></path>
            <path
                d="M188.328741 676.021405l0.097744-12.826406-61.117924-105.858741a29.446874 29.446874 0 0 1-3.018095-7.472429L9.584896 616.088378a485.37673 485.37673 0 0 0 43.673612 134.523664c2.708905-25.66877 19.875942-34.024884 19.875943-34.024885s34.90857-20.446448 65.302962-37.170644c30.392398-16.722202 49.891328-3.395108 49.891328-3.395108z"
                fill="#FF4155"
                p-id="4532"
            ></path>
            <path
                d="M415.34615 723.227765c90.917873-36.253048 188.426485-41.47936 279.140891-19.331369L418.98462 226.714204c-26.177438 89.635233-79.455894 171.466904-156.3106 232.078154a29.347136 29.347136 0 0 1 13.93949 12.337686l135.018368 233.859489a29.345141 29.345141 0 0 1 3.714272 18.238232z"
                fill="#D3DCFB"
                p-id="4533"
            ></path>
            <path
                d="M515.342246 393.611077l-96.35962-166.896873c-26.175443 89.635233-79.455894 171.466904-156.310601 232.078154a29.347136 29.347136 0 0 1 13.939491 12.337686l65.753781 113.887712c76.964419-55.682161 136.277071-122.748504 172.976949-191.406679z"
                fill="#BEC8F7"
                p-id="4534"
            ></path>
            <path
                d="M404.680086 743.081764l-107.666008 62.161191c-14.117026 8.150652-32.165753 3.313322-40.316405-10.803703L121.67731 560.579763c-8.150652-14.117026-3.313322-32.167748 10.803704-40.316406l107.666007-62.161191c14.117026-8.150652 32.167748-3.313322 40.316406 10.801709l135.018368 233.859489c8.150652 14.11902 3.313322 32.167748-10.801709 40.3184z"
                fill="#FF4155"
                p-id="4535"
            ></path>
            <path
                d="M280.463427 468.90587c-8.150652-14.117026-26.19938-18.952361-40.316406-10.801709l-107.666007 62.161191c-14.117026 8.150652-18.952361 26.201375-10.803704 40.316406l66.649436 115.441642c7.610068-33.637898 35.518971-18.52149 35.518971-18.52149l89.465676-51.652714c4.133175-32.339299 32.666442-23.462548 32.666442-23.462549z"
                fill="#E80054"
                p-id="4536"
            ></path>
            <path
                d="M181.686138 569.490424a14.960816 14.960816 0 0 1-7.494371-27.918876l63.553545-36.691899a14.960816 14.960816 0 0 1 14.960815 25.912133l-63.553544 36.691898a14.890998 14.890998 0 0 1-7.466445 2.006744zM209.25194 617.237369a14.960816 14.960816 0 0 1-7.494371-27.918877l63.553544-36.691899a14.960816 14.960816 0 0 1 14.960815 25.912133l-63.553544 36.691898a14.890998 14.890998 0 0 1-7.466444 2.006745zM236.817741 664.982318a14.960816 14.960816 0 0 1-7.494371-27.918877l63.553544-36.691898a14.960816 14.960816 0 0 1 14.960816 25.912132l-63.553545 36.691899a14.890998 14.890998 0 0 1-7.466444 2.006744zM264.383542 712.727267a14.960816 14.960816 0 0 1-7.494371-27.918876l63.553544-36.691899a14.960816 14.960816 0 0 1 14.960816 25.912132l-63.553544 36.691899a14.890998 14.890998 0 0 1-7.466445 2.006744zM291.949344 760.472216a14.960816 14.960816 0 0 1-7.494372-27.918876l63.553545-36.691899a14.960816 14.960816 0 0 1 14.960815 25.912133l-63.553544 36.691898a14.890998 14.890998 0 0 1-7.466444 2.006744z"
                fill="#FF7186"
                p-id="4537"
            ></path>
            <path
                d="M733.046049 718.621828c-14.358393 8.290287-32.720301 3.37117-41.010587-10.989217l-277.513154-480.665071c-8.290287-14.360388-3.369176-32.720301 10.989217-41.010587s32.720301-3.37117 41.010588 10.989217l277.511159 480.665071c8.292281 14.360388 3.373165 32.720301-10.987223 41.010587z"
                fill="#E9EFFF"
                p-id="4538"
            ></path>
            <path
                d="M530.295083 365.059857c10.334931-5.966373 22.429255-6.076086 32.484917-1.394348L466.524108 196.944176c-8.290287-14.360388-26.652194-19.279504-41.010588-10.989218s-19.279504 26.650199-10.989217 41.010587l98.218751 170.118436c-0.544574-12.686772 5.792828-25.233909 17.552029-32.024124z"
                fill="#D3DCFB"
                p-id="4539"
            ></path>
            <path
                d="M844.029368 872.289352c-31.028731-47.60332-85.328513-102.397806-150.757145-94.608208-111.904905 13.319115-389.190655 28.110375-178.935344 244.429804 129.419033-5.984326 245.688507-62.292846 329.692489-149.821596zM40.438087 345.285648c37.130749 211.77932 304.50047-126.185502 318.675344-201.121235C365.470781 110.556437 349.085695 87.9676 328.340031 73.126471 198.254743 119.155914 93.467196 218.681243 40.438087 345.285648z"
                fill="#827DF9"
                p-id="4540"
            ></path>
            <path
                d="M642.517157 91.35074m-14.587792 0a14.587793 14.587793 0 1 0 29.175585 0 14.587793 14.587793 0 1 0-29.175585 0Z"
                fill="#5F5F9B"
                p-id="4541"
            ></path>
        </svg>
