<?xml version="1.0" standalone="no"?><!DOCTYPE svg PUBLIC "-//W3C//DTD SVG 1.1//EN" "http://www.w3.org/Graphics/SVG/1.1/DTD/svg11.dtd"><svg t="1634112759030" class="icon" viewBox="0 0 1024 1024" version="1.1" xmlns="http://www.w3.org/2000/svg" p-id="5057" xmlns:xlink="http://www.w3.org/1999/xlink" width="200" height="200">
            <path
                d="M947.57 598.58c-5.97 20.15-13.81 39.93-23.51 59.34-2.61 5.6-5.6 10.82-8.96 16.42-5.97 10.82-13.06 21.27-20.53 31.35-8.59 11.57-18.29 22.76-29.11 33.22l-15.3 15.67-39.93 39.93-70.91 70.91c-9.7 9.7-19.78 18.29-29.86 26.5-17.17 13.43-35.45 24.63-54.49 33.96-89.94 45.16-197.05 44.78-286.99-0.37-18.66-8.96-36.95-20.53-53.74-33.59-10.45-8.21-20.53-16.79-30.23-26.5l-70.91-70.91-39.56-39.93-15.3-15.3c-24.63-24.63-44.78-52.25-59.34-81.73-1.87-2.61-2.99-5.6-4.48-8.59-7.46-16.42-13.81-33.22-18.29-50.01-5.23-18.29-8.59-36.58-10.45-55.24-9.33-92.55 21.65-188.84 92.55-259.38L284.39 158.2c125.4-125.77 329.54-125.77 454.94 0l126.14 125.77c85.09 85.08 112.33 206.38 82.1 314.61z"
                fill="#3C98FB"
                p-id="1082"
            ></path>
            <path
                d="M924.36 657.91c-2.61 5.6-5.6 10.82-8.96 16.42-5.97 10.82-13.06 21.27-20.53 31.35-8.59 11.57-18.29 22.76-29.11 33.22l-15.3 15.67-39.93 39.93-70.91 70.91c-9.7 9.7-19.78 18.29-29.86 26.5-17.17 13.43-35.45 24.63-54.49 33.96-89.94 45.16-197.05 44.78-286.99-0.37-18.66-8.96-36.95-20.53-53.74-33.59-10.45-8.21-20.53-16.79-30.23-26.5L213.4 794.5l-39.56-39.93-15.3-15.3c-24.63-24.63-44.78-52.25-59.34-81.73 46.28-157.87 180.26-277.66 345.59-303.42 21.64-3.73 44.41-5.6 67.18-5.6 22.76 0 45.53 1.87 67.55 5.6 164.95 25.76 299.31 145.93 344.84 303.79z"
                fill="#FFFFFF"
                opacity=".15"
                p-id="1083"
            ></path>
            <path
                d="M811.09 778.46c0 5.22 0 10.82-0.74 16.05l-70.91 70.91c-9.7 9.7-19.78 18.29-29.86 26.5-17.17 13.43-35.45 24.63-54.49 33.96-89.94 45.16-197.05 44.78-286.99-0.37-18.66-8.96-36.95-20.53-53.74-33.59-10.45-8.21-20.53-16.79-30.23-26.5l-70.91-70.91c-0.75-5.23-0.75-10.45-0.75-16.05 0-101.89 51.13-192.2 129.13-245.94 38.44-26.87 83.6-44.78 132.86-51.13 12.32-1.49 24.63-2.24 37.32-2.24 12.69 0 25.38 0.75 37.69 2.24a299.308 299.308 0 0 1 133.23 51.5c77.64 54.12 128.39 143.68 128.39 245.57z"
                fill="#FFFFFF"
                opacity=".2"
                p-id="1084"
            ></path>
            <path
                d="M717.79 778.09c0 57.85-23.88 110.47-62.7 147.79-89.94 45.16-197.05 44.78-286.99-0.37-38.44-37.32-62.32-89.57-62.32-147.42 0-13.81 1.49-26.87 3.73-39.93 17.91-89.94 94.42-158.99 188.47-164.96 4.48-0.75 8.96-0.75 13.81-0.75s9.7 0 14.18 0.75c93.67 6.34 170.18 75.01 188.09 164.96 2.24 13.06 3.73 26.12 3.73 39.93z"
                fill="#FFFFFF"
                opacity=".25"
                p-id="1085"
            ></path>
            <path
                d="M784.92 489.28l-117.14-202.9a44.868 44.868 0 0 0-38.86-22.44H394.64c-16.03 0-30.85 8.55-38.86 22.44l-117.14 202.9a44.866 44.866 0 0 0 0 44.88l117.14 202.89a44.89 44.89 0 0 0 38.86 22.44h234.28c16.03 0 30.85-8.56 38.86-22.44l117.14-202.89c8.02-13.89 8.02-31 0-44.88zM627.41 627.35c-13.35 13.35-34.99 13.35-48.34 0l-63.14-63.14c-11.32 4.91-23.76 7.69-36.89 7.69-51.32 0-92.91-41.6-92.91-92.92 0-13.12 2.78-25.57 7.69-36.88l56.5 56.5 48.34-48.34-56.5-56.5c11.32-4.9 23.76-7.69 36.88-7.69 51.32 0 92.92 41.6 92.92 92.92 0 13.12-2.78 25.57-7.69 36.88L627.41 579c13.35 13.35 13.35 35 0 48.35z"
                fill="#FFFFFF"
                p-id="1086"
            ></path>
        </svg>
